<svg width="1600" height="1100" viewBox="0 0 1600 1100" fill="none" xmlns="http://www.w3.org/2000/svg">
  <rect width="1600" height="1100" rx="44" fill="url(#bg)"/>
  <circle cx="1320" cy="170" r="210" fill="#6EE7B7" fill-opacity=".2"/>
  <circle cx="220" cy="900" r="260" fill="#22D3EE" fill-opacity=".15"/>
  <rect x="120" y="150" width="1360" height="800" rx="42" fill="#ECFEFF" fill-opacity=".16" stroke="rgba(255,255,255,.28)"/>
  <rect x="240" y="220" width="450" height="610" rx="80" fill="#134E4A"/>
  <rect x="300" y="290" width="330" height="430" rx="58" fill="#0F766E"/>
  <rect x="370" y="250" width="190" height="85" rx="42" fill="#99F6E4"/>
  <rect x="760" y="300" width="180" height="460" rx="42" fill="#ECFEFF"/>
  <rect x="815" y="240" width="70" height="120" rx="30" fill="#A7F3D0"/>
  <rect x="1030" y="390" width="300" height="240" rx="42" fill="#164E63"/>
  <rect x="1080" y="440" width="200" height="36" rx="18" fill="#A5F3FC"/>
  <rect x="1080" y="500" width="142" height="24" rx="12" fill="#67E8F9"/>
  <circle cx="1210" cy="760" r="100" fill="#CCFBF1"/>
  <rect x="1130" y="680" width="160" height="260" rx="70" fill="#0F766E"/>
  <rect x="1175" y="640" width="70" height="92" rx="35" fill="#99F6E4"/>
  <rect x="720" y="800" width="260" height="70" rx="26" fill="#FFFFFF"/>
  <rect x="760" y="824" width="110" height="14" rx="7" fill="#0F172A" fill-opacity=".82"/>
  <rect x="760" y="848" width="82" height="10" rx="5" fill="#64748B"/>
  <defs>
    <linearGradient id="bg" x1="140" y1="60" x2="1450" y2="1020" gradientUnits="userSpaceOnUse">
      <stop stop-color="#022C22"/>
      <stop offset=".5" stop-color="#115E59"/>
      <stop offset="1" stop-color="#155E75"/>
    </linearGradient>
  </defs>
</svg>
