<svg width="1600" height="1100" viewBox="0 0 1600 1100" fill="none" xmlns="http://www.w3.org/2000/svg">
  <rect width="1600" height="1100" rx="44" fill="url(#bg)"/>
  <circle cx="1250" cy="190" r="210" fill="#7DD3FC" fill-opacity=".22"/>
  <circle cx="310" cy="920" r="250" fill="#38BDF8" fill-opacity=".16"/>
  <rect x="120" y="150" width="1360" height="800" rx="42" fill="#0F172A" fill-opacity=".26" stroke="rgba(255,255,255,.32)"/>
  <rect x="250" y="250" width="1100" height="520" rx="34" fill="#E2E8F0"/>
  <rect x="300" y="300" width="1000" height="420" rx="26" fill="url(#screen)"/>
  <rect x="650" y="760" width="250" height="24" rx="12" fill="#94A3B8"/>
  <rect x="570" y="790" width="410" height="34" rx="17" fill="#CBD5E1"/>
  <rect x="220" y="780" width="260" height="118" rx="28" fill="#F8FAFC"/>
  <circle cx="300" cy="839" r="28" fill="#38BDF8"/>
  <rect x="350" y="815" width="88" height="20" rx="10" fill="#0F172A" fill-opacity=".8"/>
  <rect x="350" y="848" width="62" height="16" rx="8" fill="#64748B"/>
  <rect x="1120" y="770" width="220" height="138" rx="30" fill="#F8FAFC"/>
  <rect x="1170" y="818" width="120" height="22" rx="11" fill="#0F172A" fill-opacity=".78"/>
  <rect x="1188" y="860" width="84" height="16" rx="8" fill="#64748B"/>
  <rect x="1070" y="350" width="170" height="110" rx="24" fill="#F8FAFC" fill-opacity=".94"/>
  <circle cx="1130" cy="405" r="26" fill="#0F172A"/>
  <rect x="1168" y="392" width="44" height="12" rx="6" fill="#64748B"/>
  <rect x="1168" y="414" width="30" height="10" rx="5" fill="#94A3B8"/>
  <defs>
    <linearGradient id="bg" x1="150" y1="70" x2="1450" y2="1030" gradientUnits="userSpaceOnUse">
      <stop stop-color="#082F49"/>
      <stop offset=".5" stop-color="#0F172A"/>
      <stop offset="1" stop-color="#075985"/>
    </linearGradient>
    <linearGradient id="screen" x1="300" y1="300" x2="1300" y2="720" gradientUnits="userSpaceOnUse">
      <stop stop-color="#38BDF8"/>
      <stop offset=".5" stop-color="#0F172A"/>
      <stop offset="1" stop-color="#1D4ED8"/>
    </linearGradient>
  </defs>
</svg>
