<svg width="1600" height="1100" viewBox="0 0 1600 1100" fill="none" xmlns="http://www.w3.org/2000/svg">
  <rect width="1600" height="1100" rx="44" fill="url(#bg)"/>
  <circle cx="1280" cy="180" r="220" fill="#FCD34D" fill-opacity=".2"/>
  <circle cx="280" cy="920" r="250" fill="#FDBA74" fill-opacity=".16"/>
  <rect x="100" y="140" width="1400" height="820" rx="52" fill="#FFFBEB" fill-opacity=".18" stroke="rgba(255,255,255,.3)"/>
  <rect x="170" y="200" width="1260" height="700" rx="42" fill="#FFF7ED"/>
  <rect x="230" y="560" width="450" height="210" rx="46" fill="#D6D3D1"/>
  <rect x="280" y="500" width="350" height="120" rx="34" fill="#E7E5E4"/>
  <rect x="710" y="350" width="250" height="420" rx="34" fill="#F5F5F4"/>
  <rect x="760" y="280" width="150" height="90" rx="26" fill="#FB923C"/>
  <rect x="1030" y="430" width="240" height="340" rx="32" fill="#E7E5E4"/>
  <circle cx="1180" cy="300" r="86" fill="#FEF3C7"/>
  <rect x="1125" y="260" width="110" height="165" rx="55" fill="#FDBA74"/>
  <rect x="300" y="790" width="210" height="65" rx="24" fill="#FFFFFF"/>
  <rect x="330" y="812" width="86" height="14" rx="7" fill="#44403C"/>
  <rect x="330" y="838" width="60" height="10" rx="5" fill="#A8A29E"/>
  <rect x="760" y="790" width="200" height="65" rx="24" fill="#FFFFFF"/>
  <rect x="790" y="812" width="84" height="14" rx="7" fill="#44403C"/>
  <rect x="790" y="838" width="56" height="10" rx="5" fill="#A8A29E"/>
  <defs>
    <linearGradient id="bg" x1="120" y1="80" x2="1440" y2="1020" gradientUnits="userSpaceOnUse">
      <stop stop-color="#78350F"/>
      <stop offset=".48" stop-color="#B45309"/>
      <stop offset="1" stop-color="#EA580C"/>
    </linearGradient>
  </defs>
</svg>
